# xmcd
#
# Track frame offsets:
#	150
#	14160
#	34423
#	50393
#	65620
#	79723
#	98240
#	115428
#	131368
#	147063
#	160623
#	177210
#
# Disc length: 2638 seconds
#
# Revision: 1
# Processed by: cddbd v1.5.1PL2 Copyright (c) Steve Scherf et al.
# Submitted via: audiograbber 1.83.01
#
DISCID=a00a4c0c
DTITLE=Le chat qui va nu-pieds - Allons à la queue de tortue
DYEAR=1993
DGENRE=Country
TTITLE0=Allons à la queue de tortue
TTITLE1=Plus tu tournes
TTITLE2=Fifi Poncho
TTITLE3=Les haricots gris gris
TTITLE4=Mes chers p'tits yeux bleus
TTITLE5=P'tit nègre à Tante Dolly
TTITLE6=Valse des bambocheurs, Happy one step
TTITLE7=Blues français
TTITLE8=Chères joues rosées
TTITLE9=Laissez-moi tranquille
TTITLE10=Chère Toutoute
TTITLE11=Tu peux cogner
EXTD=
EXTT0=
EXTT1=
EXTT2=
EXTT3=
EXTT4=
EXTT5=
EXTT6=
EXTT7=
EXTT8=
EXTT9=
EXTT10=
EXTT11=
PLAYORDER=
